<svg width="20" height="20" viewBox="0 0 20 20" fill="none" xmlns="http://www.w3.org/2000/svg">
<path d="M9.2 6.375L12.7 0.375C14.2167 0.775 15.5627 1.50833 16.738 2.575C17.9127 3.64167 18.7667 4.90833 19.3 6.375H9.2ZM6.425 8.875L3 2.875C3.9 1.99167 4.946 1.29167 6.138 0.775C7.32933 0.258333 8.61667 0 10 0C10.2167 0 10.4667 0.0123333 10.75 0.0369999C11.0333 0.0623333 11.2917 0.0916667 11.525 0.125L6.425 8.875ZM0.325 12.5C0.225 12.1 0.146 11.6917 0.0880001 11.275C0.0293334 10.8583 0 10.4333 0 10C0 8.81667 0.191667 7.7 0.575 6.65C0.958333 5.6 1.5 4.64167 2.2 3.775L7.25 12.5H0.325ZM7.325 19.625C5.80833 19.225 4.45833 18.4917 3.275 17.425C2.09167 16.3583 1.23333 15.0917 0.7 13.625H10.775L7.325 19.625ZM10 20C9.75 20 9.496 19.9833 9.238 19.95C8.97933 19.9167 8.73333 19.8833 8.5 19.85L13.575 11.125L17 17.125C16.1 18.0083 15.0543 18.7083 13.863 19.225C12.671 19.7417 11.3833 20 10 20ZM17.8 16.225L12.75 7.5H19.675C19.775 7.9 19.8543 8.30833 19.913 8.725C19.971 9.14167 20 9.56667 20 10C20 11.1667 19.796 12.2833 19.388 13.35C18.9793 14.4167 18.45 15.375 17.8 16.225Z"/>
</svg>
