<svg width="24" height="24" viewBox="0 0 24 24" fill="none" xmlns="http://www.w3.org/2000/svg">
<path d="M12 0L15 4.5H13.5L13.5 7.5H10.5L10.5 4.5H9L12 0ZM1.5 22.5L1.5 10.5L22.5 10.5L22.5 22.5L1.5 22.5ZM0 24L24 24L24 9L0 9L0 24Z" />
<path d="M12 21C10.8065 21 9.66193 20.5259 8.81802 19.682C7.97411 18.8381 7.5 17.6935 7.5 16.5C7.5 15.3065 7.97411 14.1619 8.81802 13.318C9.66193 12.4741 10.8065 12 12 12H4.5V13.5H3V19.5H4.5V21H12ZM16.5 16.5C16.5 17.6935 16.0259 18.8381 15.182 19.682C14.3381 20.5259 13.1935 21 12 21H19.5V19.5H21V13.5H19.5V12L12 12C13.1935 12 14.3381 12.4741 15.182 13.318C16.0259 14.1619 16.5 15.3065 16.5 16.5Z" />
</svg>

