<svg width="16" height="14" viewBox="0 0 16 14" fill="none" xmlns="http://www.w3.org/2000/svg">
<path d="M3.55114 1.53033C3.84268 1.23744 3.84268 0.762563 3.55114 0.46967C3.25961 0.176777 2.78695 0.176777 2.49542 0.46967L0.50472 2.46967C0.213189 2.76256 0.213189 3.23744 0.50472 3.53033L2.49542 5.53033C2.78695 5.82322 3.25961 5.82322 3.55114 5.53033C3.84268 5.23744 3.84268 4.76256 3.55114 4.46967L2.83482 3.75H12.9768C13.3891 3.75 13.7233 3.41421 13.7233 3C13.7233 2.58579 13.3891 2.25 12.9768 2.25H2.83482L3.55114 1.53033Z" />
<path d="M12.4489 8.46967C12.1574 8.76256 12.1574 9.23744 12.4489 9.53033L13.1652 10.25H3.02328C2.61099 10.25 2.27677 10.5858 2.27677 11C2.27677 11.4142 2.61099 11.75 3.02328 11.75H13.1652L12.4489 12.4697C12.1574 12.7626 12.1574 13.2374 12.4489 13.5303C12.7404 13.8232 13.2131 13.8232 13.5046 13.5303L15.4953 11.5303C15.7869 11.2374 15.7869 10.7626 15.4953 10.4697L13.5046 8.46967C13.2131 8.17678 12.7404 8.17678 12.4489 8.46967Z" />
</svg>
