<svg width="24" height="24" viewBox="0 0 24 24" fill="none" xmlns="http://www.w3.org/2000/svg">
<path d="M12 24L9 19.5H10.5L10.5 16.5H13.5L13.5 19.5H15L12 24ZM1.5 13.5L1.5 1.5L22.5 1.5L22.5 13.5L1.5 13.5ZM0 15L24 15L24 0L0 0L0 15Z" />
<path d="M12 12C11.4091 12 10.8239 11.8836 10.2779 11.6575C9.73196 11.4313 9.23588 11.0998 8.81802 10.682C8.40016 10.2641 8.06869 9.76804 7.84254 9.22208C7.6164 8.67611 7.5 8.09095 7.5 7.5C7.5 6.90905 7.6164 6.32389 7.84254 5.77792C8.06869 5.23196 8.40016 4.73588 8.81802 4.31802C9.23588 3.90016 9.73196 3.56869 10.2779 3.34254C10.8239 3.1164 11.4091 3 12 3H4.5V4.5H3V10.5H4.5V12L12 12ZM16.5 7.5C16.5 8.69347 16.0259 9.83807 15.182 10.682C14.3381 11.5259 13.1935 12 12 12H19.5V10.5H21V4.5H19.5V3L12 3C13.1935 3 14.3381 3.4741 15.182 4.31802C16.0259 5.16193 16.5 6.30653 16.5 7.5Z" />
</svg>
